<?xml version="1.0" standalone="no"?>
 <!DOCTYPE svg PUBLIC "-//W3C//DTD SVG 1.1//EN" 
 "http://www.w3.org/Graphics/SVG/1.1/DTD/svg11.dtd"> 
<svg xmlns="http://www.w3.org/2000/svg" version="1.1" 
    width="29.7002cm" height="21.0007cm" viewBox="0 0 116930 82680 ">
<title>SVG Picture created as humanpowered_al-air_jt-brd.svg date 2015/01/08 09:45:12 </title>
  <desc>Picture generated by PCBNEW </desc>
<g style="fill:#000000; fill-opacity:1;stroke:#000000; stroke-opacity:1;
stroke-linecap:round; stroke-linejoin:round; "
 transform="translate(0 0) scale(1 1)">
</g>
<g style="fill:#000000; fill-opacity:0.0; 
stroke:#000000; stroke-width:39.3701; stroke-opacity:1; 
stroke-linecap:round; stroke-linejoin:round;">
</g>
<g style="fill:#000000; fill-opacity:1.0; 
stroke:#000000; stroke-width:39.3701; stroke-opacity:1; 
stroke-linecap:round; stroke-linejoin:round;">
<circle cx="42000" cy="40500" r="310.315" /> 
<circle cx="42000" cy="39500" r="310.315" /> 
<polyline style="fill-rule:evenodd;"
points="60771,39167
61532,39167
61532,39928
60771,39928
60771,39167
" /> 
</g>
<g style="fill:#000000; fill-opacity:1.0; 
stroke:#000000; stroke-width:800; stroke-opacity:1; 
stroke-linecap:round; stroke-linejoin:round;">
</g>
<g style="fill:#000000; fill-opacity:0.0; 
stroke:#000000; stroke-width:800; stroke-opacity:1; 
stroke-linecap:round; stroke-linejoin:round;">
<path d="M61152 40548
L61152 40548
" />
</g>
<g style="fill:#000000; fill-opacity:0.0; 
stroke:#000000; stroke-width:39.3701; stroke-opacity:1; 
stroke-linecap:round; stroke-linejoin:round;">
</g>
<g style="fill:#000000; fill-opacity:1.0; 
stroke:#000000; stroke-width:39.3701; stroke-opacity:1; 
stroke-linecap:round; stroke-linejoin:round;">
<polyline style="fill-rule:evenodd;"
points="51094,39542
51449,39542
51449,39739
51094,39739
51094,39542
" /> 
<polyline style="fill-rule:evenodd;"
points="50262,39917
50617,39917
50617,40114
50262,40114
50262,39917
" /> 
<polyline style="fill-rule:evenodd;"
points="51094,40292
51449,40292
51449,40489
51094,40489
51094,40292
" /> 
<circle cx="58301" cy="38835" r="373.815" /> 
<circle cx="53971" cy="38835" r="373.815" /> 
<circle cx="58301" cy="41197" r="373.815" /> 
<circle cx="53971" cy="41197" r="373.815" /> 
<polyline style="fill-rule:evenodd;"
points="55131,42067
55131,42696
54383,42696
54383,42067
55131,42067
" /> 
<polyline style="fill-rule:evenodd;"
points="53556,42067
53556,42696
52808,42696
52808,42067
53556,42067
" /> 
<polyline style="fill-rule:evenodd;"
points="59934,39518
59265,39518
59265,38179
59934,38179
59934,39518
" /> 
<polyline style="fill-rule:evenodd;"
points="59934,41880
59265,41880
59265,40541
59934,40541
59934,41880
" /> 
<polyline style="fill-rule:evenodd;"
points="52291,40517
52960,40517
52960,41856
52291,41856
52291,40517
" /> 
<polyline style="fill-rule:evenodd;"
points="52291,38155
52960,38155
52960,39494
52291,39494
52291,38155
" /> 
</g>
<g style="fill:#000000; fill-opacity:1.0; 
stroke:#000000; stroke-width:196.85; stroke-opacity:1; 
stroke-linecap:round; stroke-linejoin:round;">
</g>
<g style="fill:#000000; fill-opacity:0.0; 
stroke:#000000; stroke-width:196.85; stroke-opacity:1; 
stroke-linecap:round; stroke-linejoin:round;">
<path d="M42000 39500
L42000 36408
" />
<path d="M58301 36295
L58301 38835
" />
<path d="M57212 35206
L58301 36295
" />
<path d="M43202 35206
L57212 35206
" />
<path d="M42000 36408
L43202 35206
" />
<path d="M61152 39548
L61152 39396
" />
<path d="M61152 39396
L60605 38849
" />
<path d="M60605 38849
L59600 38849
" />
<path d="M59600 38849
L58315 38849
" />
<path d="M58315 38849
L58301 38835
" />
<path d="M61150 39500
L61150 39248
" />
<path d="M51272 39641
L51272 38520
" />
<path d="M57072 37606
L58301 38835
" />
<path d="M52186 37606
L57072 37606
" />
<path d="M51272 38520
L52186 37606
" />
<path d="M58301 38835
L58301 38831
" />
<path d="M59600 41211
L58315 41211
" />
<path d="M58315 41211
L58301 41197
" />
<path d="M61152 40548
L61152 40678
" />
<path d="M61152 40678
L60619 41211
" />
<path d="M60619 41211
L59600 41211
" />
<path d="M57138 42360
L58301 41197
" />
<path d="M54503 42360
L57138 42360
" />
<path d="M53182 42382
L53182 41380
" />
<path d="M52989 41187
L52626 41187
" />
<path d="M53182 41380
L52989 41187
" />
<path d="M51272 40391
L51272 41540
" />
<path d="M52142 42410
L53154 42410
" />
<path d="M51272 41540
L52142 42410
" />
<path d="M53154 42410
L53182 42382
" />
<path d="M52626 38825
L53961 38825
" />
<path d="M53961 38825
L53971 38835
" />
<path d="M53971 38931
L53971 38835
" />
</g>
<g style="fill:#000000; fill-opacity:0.0; 
stroke:#000000; stroke-width:354.331; stroke-opacity:1; 
stroke-linecap:round; stroke-linejoin:round;">
<path d="M53817 38835
L53971 38835
" />
</g>
<g style="fill:#000000; fill-opacity:0.0; 
stroke:#000000; stroke-width:196.85; stroke-opacity:1; 
stroke-linecap:round; stroke-linejoin:round;">
<path d="M42000 40500
L42000 43628
" />
<path d="M53971 43973
L53971 41197
" />
<path d="M53130 44814
L53971 43973
" />
<path d="M43186 44814
L53130 44814
" />
<path d="M42000 43628
L43186 44814
" />
<path d="M50440 40016
L53366 40016
" />
<path d="M53971 40621
L53971 41197
" />
<path d="M53366 40016
L53971 40621
" />
</g>
<g style="fill:#FFFFFF; fill-opacity:0.0; 
stroke:#FFFFFF; stroke-width:39.3701; stroke-opacity:1; 
stroke-linecap:round; stroke-linejoin:round;">
</g>
<g style="fill:#FFFFFF; fill-opacity:1.0; 
stroke:#FFFFFF; stroke-width:39.3701; stroke-opacity:1; 
stroke-linecap:round; stroke-linejoin:round;">
<circle cx="42000" cy="40500" r="140.315" /> 
<circle cx="42000" cy="39500" r="140.315" /> 
<circle cx="61152" cy="39548" r="180.315" /> 
<circle cx="61152" cy="40548" r="180.315" /> 
<circle cx="58301" cy="38835" r="177.315" /> 
<circle cx="53971" cy="38835" r="177.315" /> 
<circle cx="58301" cy="41197" r="177.315" /> 
<circle cx="53971" cy="41197" r="177.315" /> 
</g>
<g style="fill:#000000; fill-opacity:1.0; 
stroke:#000000; stroke-width:39.3701; stroke-opacity:1; 
stroke-linecap:round; stroke-linejoin:round;">
</g>
<g style="fill:#000000; fill-opacity:0.0; 
stroke:#000000; stroke-width:39.3701; stroke-opacity:1; 
stroke-linecap:round; stroke-linejoin:round;">
<circle cx="56136" cy="40016" r="200" /> 
<circle cx="56136" cy="40016" r="1802.78" /> 
<path d="M39500 45000
L39500 35000
" />
<path d="M71000 45000
L39500 45000
" />
<path d="M71000 35000
L71000 45000
" />
<path d="M39500 35000
L71000 35000
" />
</g> 
</svg>
