<?xml version="1.0" standalone="no"?>
 <!DOCTYPE svg PUBLIC "-//W3C//DTD SVG 1.1//EN" 
 "http://www.w3.org/Graphics/SVG/1.1/DTD/svg11.dtd"> 
<svg xmlns="http://www.w3.org/2000/svg" version="1.1" 
    width="29.7002cm" height="21.0007cm" viewBox="0 0 116930 82680 ">
<title>SVG Picture created as humanpowered_al-air_jt-brd.svg date 2015/01/08 07:23:30 </title>
  <desc>Picture generated by PCBNEW </desc>
<g style="fill:#000000; fill-opacity:1;stroke:#000000; stroke-opacity:1;
stroke-linecap:round; stroke-linejoin:round; "
 transform="translate(0 0) scale(1 1)">
</g>
<g style="fill:#000000; fill-opacity:0.0; 
stroke:#000000; stroke-width:39.3701; stroke-opacity:1; 
stroke-linecap:round; stroke-linejoin:round;">
</g>
<g style="fill:#000000; fill-opacity:1.0; 
stroke:#000000; stroke-width:39.3701; stroke-opacity:1; 
stroke-linecap:round; stroke-linejoin:round;">
<circle cx="60050" cy="39500" r="275.815" /> 
<circle cx="60050" cy="40500" r="275.815" /> 
<circle cx="53450" cy="40500" r="275.815" /> 
<circle cx="53450" cy="39500" r="275.815" /> 
<circle cx="42000" cy="40500" r="310.315" /> 
<circle cx="42000" cy="39500" r="310.315" /> 
<polyline style="fill-rule:evenodd;"
points="60769,39119
61530,39119
61530,39880
60769,39880
60769,39119
" /> 
</g>
<g style="fill:#000000; fill-opacity:1.0; 
stroke:#000000; stroke-width:800; stroke-opacity:1; 
stroke-linecap:round; stroke-linejoin:round;">
</g>
<g style="fill:#000000; fill-opacity:0.0; 
stroke:#000000; stroke-width:800; stroke-opacity:1; 
stroke-linecap:round; stroke-linejoin:round;">
<path d="M61150 40500
L61150 40500
" />
</g>
<g style="fill:#000000; fill-opacity:0.0; 
stroke:#000000; stroke-width:39.3701; stroke-opacity:1; 
stroke-linecap:round; stroke-linejoin:round;">
</g>
<g style="fill:#000000; fill-opacity:1.0; 
stroke:#000000; stroke-width:39.3701; stroke-opacity:1; 
stroke-linecap:round; stroke-linejoin:round;">
<polyline style="fill-rule:evenodd;"
points="52238,39526
52593,39526
52593,39723
52238,39723
52238,39526
" /> 
<polyline style="fill-rule:evenodd;"
points="51406,39901
51761,39901
51761,40098
51406,40098
51406,39901
" /> 
<polyline style="fill-rule:evenodd;"
points="52238,40276
52593,40276
52593,40473
52238,40473
52238,40276
" /> 
<circle cx="58915" cy="38819" r="373.815" /> 
<circle cx="54585" cy="38819" r="373.815" /> 
<circle cx="58915" cy="41181" r="373.815" /> 
<circle cx="54585" cy="41181" r="373.815" /> 
<polyline style="fill-rule:evenodd;"
points="55391,42129
55391,42602
54839,42602
54839,42129
55391,42129
" /> 
<polyline style="fill-rule:evenodd;"
points="54328,42129
54328,42602
53776,42602
53776,42129
54328,42129
" /> 
</g>
<g style="fill:#000000; fill-opacity:1.0; 
stroke:#000000; stroke-width:196.85; stroke-opacity:1; 
stroke-linecap:round; stroke-linejoin:round;">
</g>
<g style="fill:#000000; fill-opacity:0.0; 
stroke:#000000; stroke-width:196.85; stroke-opacity:1; 
stroke-linecap:round; stroke-linejoin:round;">
<path d="M42000 39500
L42000 36750
" />
<path d="M60050 36800
L60050 39500
" />
<path d="M58500 35250
L60050 36800
" />
<path d="M53150 35250
L58500 35250
" />
<path d="M43500 35250
L53150 35250
" />
<path d="M42000 36750
L43500 35250
" />
<path d="M61150 39500
L60050 39500
" />
<path d="M60050 39500
L59596 39500
" />
<path d="M59596 39500
L58915 38819
" />
<path d="M57800 37700
L54341 37700
" />
<path d="M54341 37700
L52416 39625
" />
<path d="M58915 38815
L57800 37700
" />
<path d="M58915 38819
L58915 38815
" />
<path d="M61150 40500
L60050 40500
" />
<path d="M60050 40500
L59596 40500
" />
<path d="M59596 40500
L58915 41181
" />
<path d="M57752 42344
L58915 41181
" />
<path d="M55117 42344
L57752 42344
" />
<path d="M53325 40375
L53450 40500
" />
<path d="M52416 40375
L53325 40375
" />
<path d="M54054 42054
L54054 42344
" />
<path d="M52416 40416
L54054 42054
" />
<path d="M52416 40375
L52416 40416
" />
<path d="M53450 39500
L53904 39500
" />
<path d="M53904 39500
L54585 38819
" />
<path d="M54585 38915
L54585 38819
" />
</g>
<g style="fill:#000000; fill-opacity:0.0; 
stroke:#000000; stroke-width:354.331; stroke-opacity:1; 
stroke-linecap:round; stroke-linejoin:round;">
<path d="M54431 38819
L54585 38819
" />
</g>
<g style="fill:#000000; fill-opacity:0.0; 
stroke:#000000; stroke-width:196.85; stroke-opacity:1; 
stroke-linecap:round; stroke-linejoin:round;">
<path d="M42000 40500
L42000 43250
" />
<path d="M54585 43165
L54585 41181
" />
<path d="M53000 44750
L54585 43165
" />
<path d="M43500 44750
L53000 44750
" />
<path d="M42000 43250
L43500 44750
" />
<path d="M53900 40000
L54585 40685
" />
<path d="M54585 40685
L54585 41181
" />
<path d="M51584 40000
L53900 40000
" />
</g>
<g style="fill:#FFFFFF; fill-opacity:0.0; 
stroke:#FFFFFF; stroke-width:39.3701; stroke-opacity:1; 
stroke-linecap:round; stroke-linejoin:round;">
</g>
<g style="fill:#FFFFFF; fill-opacity:1.0; 
stroke:#FFFFFF; stroke-width:39.3701; stroke-opacity:1; 
stroke-linecap:round; stroke-linejoin:round;">
<circle cx="60050" cy="39500" r="137.815" /> 
<circle cx="60050" cy="40500" r="137.815" /> 
<circle cx="53450" cy="40500" r="137.815" /> 
<circle cx="53450" cy="39500" r="137.815" /> 
<circle cx="42000" cy="40500" r="140.315" /> 
<circle cx="42000" cy="39500" r="140.315" /> 
<circle cx="61150" cy="39500" r="180.315" /> 
<circle cx="61150" cy="40500" r="180.315" /> 
<circle cx="58915" cy="38819" r="177.315" /> 
<circle cx="54585" cy="38819" r="177.315" /> 
<circle cx="58915" cy="41181" r="177.315" /> 
<circle cx="54585" cy="41181" r="177.315" /> 
</g>
<g style="fill:#000000; fill-opacity:1.0; 
stroke:#000000; stroke-width:39.3701; stroke-opacity:1; 
stroke-linecap:round; stroke-linejoin:round;">
</g>
<g style="fill:#000000; fill-opacity:0.0; 
stroke:#000000; stroke-width:39.3701; stroke-opacity:1; 
stroke-linecap:round; stroke-linejoin:round;">
<circle cx="56750" cy="40000" r="200" /> 
<circle cx="56750" cy="40000" r="1802.78" /> 
<path d="M39500 45000
L39500 35000
" />
<path d="M71000 45000
L39500 45000
" />
<path d="M71000 35000
L71000 45000
" />
<path d="M39500 35000
L71000 35000
" />
</g> 
</svg>
